<svg width="66" height="64" viewBox="0 0 66 64" fill="none" xmlns="http://www.w3.org/2000/svg">
<path d="M61.0505 11.2602C61.4104 11.1 61.7503 10.8899 62.0702 10.6498C62.99 9.94943 63.4796 8.81926 63.6491 7.66919C63.7887 6.66914 63.5583 5.61922 63.048 4.62941C62.7678 4.07952 62.3776 3.52968 61.8774 3.07987C61.2772 2.5301 60.477 2.1604 59.627 2.04072C58.0969 1.82131 56.4571 2.32192 55.2175 3.40239C54.8676 3.71252 54.6878 4.17261 54.5679 4.61266C54.4481 5.0627 54.3983 5.49271 54.2084 5.88278C53.7588 6.80296 54.0992 7.87282 54.3895 8.72271C54.6999 9.64259 55.2802 10.4524 56.0804 10.9121C56.5305 11.1719 56.9705 11.4217 57.4506 11.5015C58.2606 11.6212 58.9606 11.561 59.5706 11.6007C60.1206 11.5805 60.5706 11.4504 61.0105 11.3102C61.0205 11.3002 61.0405 11.2902 61.0505 11.2602L60.1297 9.13053C60.0197 9.12057 59.9497 9.19058 59.8497 9.21062C59.7497 9.24066 59.6598 9.3207 59.5598 9.31074C59.4398 9.30078 59.3297 9.23083 59.2097 9.25087C59.0197 9.30095 58.8198 9.32102 58.5498 9.40112C58.3198 9.46121 58.1198 9.40131 57.9098 9.33139C57.6497 9.25148 57.4996 9.04154 57.2896 8.86162C57.0595 8.68171 56.7694 8.45182 56.6993 8.14184C56.5891 7.70189 56.2789 7.15201 56.4887 6.64192C56.5886 6.42189 56.4985 6.10192 56.7185 5.92184C56.9684 5.72174 56.9782 5.31172 57.3082 5.18159C57.6681 5.04145 57.918 4.74136 58.308 4.71121C58.638 4.69108 58.9379 4.49099 59.268 4.70086C59.398 4.78081 59.518 4.70076 59.648 4.75071C60.0881 4.96054 60.5881 4.97035 60.8783 5.38024C61.0584 5.64017 61.1784 5.92011 61.2286 6.21009C61.2586 6.39008 61.3787 6.53006 61.3188 6.73008C61.2488 6.93011 61.3589 7.06005 61.3189 7.22007C61.2491 7.5101 61.2992 7.80008 61.1293 8.04015C60.9594 8.25021 60.9095 8.51022 60.7195 8.68029C60.5396 8.85036 60.3596 9.03044 60.1197 9.13053L61.0505 11.2602Z" fill="black"/>
<path fill-rule="evenodd" clip-rule="evenodd" d="M12.4065 43.0373L12.5014 42.4662L12.55 42.7177L12.6301 43.1077C12.6501 43.1826 12.6701 43.2599 12.6901 43.3373L12.6901 43.3373L12.6902 43.3377L12.6903 43.338L12.6903 43.338C12.7103 43.4154 12.7303 43.4928 12.7503 43.5676C12.9305 44.1676 13.1907 44.6875 13.4509 45.1174C14.2255 46.3309 14.872 46.905 15.4866 47.4508L15.4866 47.4509L15.5718 47.5266C16.1443 47.9876 16.7313 48.4267 17.6631 48.9248C17.6287 48.9412 17.5945 48.9581 17.5604 48.9759C16.5606 49.4763 15.7009 50.2166 15.0813 51.0768C14.3135 52.1403 13.8365 53.2981 13.5158 54.4643C13.4681 54.349 13.3986 54.2433 13.3024 54.1471C13.2623 54.1072 13.2323 54.0472 13.2123 53.9972C13.1329 53.7896 13.0322 53.5963 12.9317 53.4033C12.7658 53.0849 12.6003 52.7672 12.5317 52.3874C12.4916 52.1874 12.3715 51.9175 12.1115 51.8576C11.8215 51.7977 11.7114 51.5877 11.6113 51.3478C11.6051 51.3314 11.6002 51.3145 11.5954 51.2979C11.5766 51.2334 11.5586 51.1716 11.4712 51.1478C11.4217 51.1339 11.3716 51.122 11.3218 51.1101C11.0497 51.0451 10.7903 50.9832 10.731 50.6281C10.721 50.5781 10.641 50.5382 10.591 50.5482C10.511 50.5549 10.4576 50.526 10.4043 50.4971C10.3776 50.4827 10.3509 50.4683 10.3209 50.4583C10.2425 50.4295 10.1667 50.3946 10.0912 50.3598C9.87799 50.2616 9.66664 50.1642 9.40083 50.2086C9.31084 50.2287 9.29083 50.1787 9.2608 50.0987C9.11067 49.7387 8.86054 49.4588 8.4905 49.369C8.19107 49.2955 7.92747 49.1586 7.67365 49.0032C8.43885 48.5472 9.1561 48.0091 9.81817 47.3983C10.5079 46.748 11.1376 45.9977 11.6273 45.1376C11.8771 44.7075 12.077 44.2474 12.2268 43.7673C12.2792 43.6163 12.3145 43.4524 12.3494 43.2897C12.3677 43.2045 12.3859 43.1197 12.4065 43.0373ZM4.78705 47.7161C4.8309 47.6973 4.87453 47.6788 4.91815 47.6602L4.91827 47.6601L4.92635 47.657C5.38301 47.4781 5.79093 47.3183 6.26802 47.0596C7.2778 46.4892 7.84766 46.069 8.3775 45.6388L8.39907 45.6202C8.90254 45.1856 9.4349 44.726 9.97682 43.8582C10.1467 43.5681 10.3166 43.2281 10.4264 42.868L10.5063 42.598L10.5962 42.228C10.6559 41.9789 10.7155 41.7199 10.7752 41.4608L10.7752 41.4608L10.7759 41.4579C11.0155 40.4278 11.2751 39.3977 11.5048 38.5776C11.726 37.8024 11.9747 37.97 12.3152 38.1992C12.4007 38.2569 12.4921 38.3184 12.5902 38.3698C12.6994 38.3875 12.8139 38.4014 12.9283 38.3976C13.4683 38.3774 13.5885 38.7273 13.6386 39.0073C13.859 40.0472 14.1093 41.0671 14.3797 42.087L14.55 42.717C14.5789 42.7871 14.6044 42.8589 14.63 42.931L14.63 42.931L14.63 42.931C14.6665 43.0337 14.7031 43.137 14.7502 43.2369C14.9103 43.5768 15.1104 43.8967 15.3405 44.1967C15.8108 44.8065 16.401 45.3263 17.0412 45.786C18.3415 46.6955 19.8417 47.3749 21.3419 47.8544C21.602 47.9443 21.872 48.0542 22.1321 48.1941C22.1633 48.2109 22.1948 48.2276 22.2264 48.2443C22.7004 48.4955 23.191 48.7555 23.0226 49.6837L23.0159 49.7208C23.0177 49.7381 23.0193 49.7558 23.0207 49.7738C23.0724 50.523 22.8756 50.5277 22.4861 50.537C22.3454 50.5403 22.1795 50.5443 21.991 50.5842C21.1011 50.7745 20.4712 50.8248 19.8912 50.845L19.5112 50.8451C19.4712 50.8451 19.4611 50.8451 19.3712 50.8652C19.1672 50.9023 18.9633 50.9825 18.7514 51.0657L18.7514 51.0658L18.7514 51.0658L18.7013 51.0854C17.7414 51.5558 17.2716 52.026 16.8418 52.5461C16.422 53.0763 16.0122 53.6565 15.5926 54.7766C15.3029 55.5467 15.0633 56.4768 14.8237 57.6069C14.5742 58.697 14.3046 59.7871 14.0649 60.6572C13.9098 61.2133 13.7445 61.3127 13.5477 61.2445C13.5137 61.2798 13.4763 61.3141 13.4351 61.3471C13.0852 61.6272 12.8252 61.6073 12.6851 61.3074C12.6469 61.2122 12.629 61.1049 12.6107 60.9958C12.6002 60.933 12.5895 60.8695 12.5749 60.8074C12.5687 60.7339 12.5485 60.6632 12.5225 60.5938C12.4676 60.5202 12.4373 60.4406 12.4233 60.359C12.3917 60.2829 12.3649 60.2064 12.3546 60.1275C12.3231 59.8948 12.2441 59.674 12.1649 59.4527C12.1182 59.3221 12.0714 59.1912 12.0342 59.0576C12.0085 58.9676 11.9772 58.8777 11.946 58.7877C11.9043 58.6677 11.8626 58.5477 11.834 58.4277C11.8089 58.3076 11.8064 58.1824 11.8038 58.056C11.8013 57.9299 11.7987 57.8026 11.7737 57.6777C11.7162 57.4237 11.6856 57.1697 11.6544 56.9102C11.6475 56.853 11.6406 56.7955 11.6333 56.7378C11.616 56.5996 11.5912 56.4689 11.5654 56.3328C11.5614 56.3113 11.5573 56.2896 11.5532 56.2678C11.5131 56.1478 11.4731 56.0378 11.423 55.9179C11.3902 55.8522 11.3498 55.7895 11.3091 55.7263C11.2012 55.5587 11.091 55.3877 11.1127 55.148C11.1127 55.073 11.0423 55.0331 10.9758 54.9955C10.9714 54.993 10.967 54.9905 10.9626 54.988C10.8526 54.9281 10.7926 54.8481 10.7926 54.7381C10.7925 54.5581 10.6624 54.4681 10.5224 54.4082C10.3124 54.3183 10.1624 54.1983 10.1123 53.9784C10.079 53.8058 9.93574 53.7346 9.79632 53.6654C9.72564 53.6302 9.65596 53.5956 9.60211 53.5486C9.51209 53.4736 9.42455 53.3911 9.33702 53.3087C9.24949 53.2262 9.16196 53.1437 9.07193 53.0688C8.91189 52.9488 8.72185 52.8589 8.54183 52.789C8.51634 52.7783 8.4904 52.7709 8.46545 52.7637C8.37291 52.7371 8.29393 52.7145 8.30175 52.549C8.3117 52.439 8.23165 52.3691 8.15165 52.3691C8.00805 52.3589 7.90124 52.2856 7.79483 52.2125C7.69377 52.1431 7.59306 52.0739 7.46153 52.0594C7.234 52.0327 7.05569 51.9119 6.8757 51.7901C6.78673 51.7298 6.69733 51.6693 6.60138 51.6197C6.58838 51.6139 6.57537 51.6079 6.56231 51.6019C6.48494 51.5663 6.40545 51.5298 6.31134 51.5298C6.30498 51.5298 6.29861 51.5298 6.29223 51.5299C6.15793 51.5303 6.01907 51.5308 5.97127 51.3399C5.96126 51.3099 5.95126 51.2899 5.92126 51.28C5.68916 51.2346 5.48248 51.1308 5.27687 51.0274C5.07494 50.9259 4.87403 50.8249 4.65105 50.7804C4.50491 50.7569 4.36765 50.7045 4.22881 50.6515C4.0731 50.5921 3.91539 50.5319 3.74094 50.5108C3.37092 50.4709 2.90088 50.3311 2.50082 50.1713L2.43081 50.1513C1.99074 49.9715 1.91063 49.6415 2.11038 48.9814C2.24021 48.5414 2.47006 48.2113 2.70995 47.9012C2.8199 47.7711 2.94989 47.6911 3.0799 47.711C3.14134 47.7198 3.20448 47.7183 3.26783 47.7167C3.42103 47.7131 3.57546 47.7094 3.70993 47.8508C3.85998 48.0007 4.07 48.0007 4.28993 47.8106C4.47194 47.6494 4.6491 47.6305 4.78705 47.7161Z" fill="black"/>
</svg>
