<svg width="35" height="37" viewBox="0 0 35 37" fill="none" xmlns="http://www.w3.org/2000/svg">
<path fill-rule="evenodd" clip-rule="evenodd" d="M17.4256 2.96057C17.2656 5.74057 17.1156 8.51058 16.9656 11.2906C16.9056 11.9106 16.9956 12.5106 17.4856 13.1006C17.8656 13.5606 18.6856 13.6406 19.4656 13.2406C20.1052 12.9137 20.0226 12.607 19.9212 12.2307C19.88 12.0776 19.8356 11.9129 19.8356 11.7306C19.8356 10.7847 19.8948 9.83873 19.9539 8.8928C19.9717 8.60873 19.9895 8.32466 20.0056 8.04058C20.072 6.83878 20.1517 5.90149 20.2386 4.87746L20.2387 4.87724C20.2827 4.35907 20.3286 3.81868 20.3756 3.21057C20.3856 2.99057 20.3056 2.78056 20.1856 2.58056C20.1606 2.54051 20.1387 2.49732 20.1163 2.4532C20.0493 2.32106 19.978 2.18053 19.8056 2.09057C19.7975 2.0865 19.7898 2.08244 19.7822 2.07846L19.7821 2.07842C19.7526 2.06283 19.7254 2.04854 19.6856 2.04058C19.2656 1.92058 18.3956 2.09056 18.0356 2.24056C17.5956 2.43056 17.4356 2.71057 17.4256 2.96057ZM16.4354 25.5706C16.3254 28.0906 16.2153 30.6206 16.1053 33.1506C16.0553 33.7206 16.1554 34.2606 16.6354 34.7706C17.0154 35.1806 17.8354 35.2206 18.6154 34.8406C19.2539 34.5284 19.1676 34.2564 19.0599 33.9176C19.0159 33.7789 18.9682 33.629 18.9653 33.4606C18.95 32.5993 18.9937 31.738 19.0375 30.8767L19.0375 30.8766C19.0507 30.618 19.0638 30.3593 19.0754 30.1006C19.12 29.0498 19.1848 28.2221 19.2544 27.3333C19.2942 26.8265 19.3354 26.2998 19.3754 25.7006C19.3854 25.5106 19.2954 25.3205 19.1754 25.1405C19.1556 25.1099 19.1378 25.0768 19.1196 25.0428L19.1195 25.0428C19.0543 24.9216 18.9828 24.7886 18.7953 24.7106C18.7554 24.6906 18.7254 24.6806 18.6754 24.6706C18.2554 24.5806 17.3953 24.7506 17.0353 24.9006C16.5953 25.0806 16.4454 25.3406 16.4354 25.5706ZM30.3822 19.1506C29.7531 19.2893 29.1273 19.4532 28.5015 19.617C27.2773 19.9376 26.0529 20.2582 24.8022 20.3906C24.6322 20.4106 24.4622 20.3806 24.2922 20.3206C24.2703 20.3128 24.2483 20.3054 24.2263 20.298L24.2262 20.298C23.9364 20.2002 23.6409 20.1005 23.4922 19.1806C23.368 18.4427 23.468 18.4254 23.6635 18.3916C23.7356 18.3792 23.8206 18.3645 23.9122 18.3106C24.5443 17.9505 24.9333 17.909 25.3492 17.8647C25.4991 17.8488 25.6526 17.8324 25.8223 17.8006C26.7064 17.6446 27.1468 17.5942 27.7204 17.5286L27.7204 17.5286L27.7205 17.5286C28.0292 17.4933 28.3764 17.4536 28.8522 17.3906C29.7622 17.2606 31.1322 17.1206 32.0622 17.1206C32.4999 17.1206 32.4753 17.4067 32.4416 17.7994C32.4299 17.9361 32.4171 18.0857 32.4222 18.2406C32.4422 18.7706 32.2522 18.8406 32.0922 18.8606C31.5022 18.9206 30.9422 19.0206 30.3822 19.1506ZM6.50731 19.7314C7.15907 19.8258 7.81069 19.9202 8.45402 20.0406C9.01402 20.1506 9.57399 20.2706 10.114 20.4506C10.274 20.4906 10.474 20.5106 10.664 20.0106C10.7209 19.8658 10.7925 19.733 10.8578 19.6118C11.0453 19.2641 11.1818 19.0111 10.774 18.8406C9.91396 18.4806 8.59397 18.0806 7.71397 17.8406C7.21968 17.7068 6.87181 17.6048 6.5605 17.5135C6.03414 17.3591 5.6123 17.2354 4.76401 17.0406C4.60848 17.0036 4.47062 16.9611 4.33644 16.9197C3.92712 16.7934 3.55206 16.6778 2.814 16.7606C2.71027 16.7713 2.62704 16.7501 2.55625 16.732C2.36088 16.6822 2.26012 16.6566 2.08396 17.3906C1.86998 18.293 2.10614 18.503 2.33334 18.7051C2.35034 18.7202 2.3673 18.7353 2.38401 18.7506C2.52401 18.8706 2.67396 18.9606 2.83396 19.0106C4.02127 19.3714 5.26455 19.5515 6.50731 19.7314Z" fill="black"/>
<path d="M16.9656 11.2906L17.3389 11.3267L17.3396 11.3188L17.3401 11.3108L16.9656 11.2906ZM17.4256 2.96057L17.8001 2.98212L17.8003 2.97555L17.4256 2.96057ZM17.4856 13.1006L17.7747 12.8617L17.7741 12.861L17.4856 13.1006ZM19.4656 13.2406L19.2949 12.9067L19.2945 12.9069L19.4656 13.2406ZM19.9212 12.2307L20.2833 12.1332L20.2833 12.1332L19.9212 12.2307ZM19.9539 8.8928L20.3282 8.91621L20.3282 8.91621L19.9539 8.8928ZM20.0056 8.04058L20.38 8.06189L20.3801 8.06127L20.0056 8.04058ZM20.2386 4.87746L20.6123 4.9092L20.6124 4.90776L20.2386 4.87746ZM20.2387 4.87724L19.865 4.8455L19.8649 4.84694L20.2387 4.87724ZM20.3756 3.21057L20.7497 3.2395L20.7502 3.22759L20.3756 3.21057ZM20.1856 2.58056L20.5072 2.38759L20.5036 2.38182L20.1856 2.58056ZM20.1163 2.4532L20.4508 2.28359L20.4508 2.28359L20.1163 2.4532ZM19.8056 2.09057L19.9791 1.75805L19.9733 1.75516L19.8056 2.09057ZM19.7822 2.07846L19.957 1.74665L19.9517 1.74394L19.7822 2.07846ZM19.7821 2.07842L19.6073 2.41024L19.6127 2.41294L19.7821 2.07842ZM19.6856 2.04058L19.5826 2.40115L19.5972 2.40532L19.6121 2.4083L19.6856 2.04058ZM18.0356 2.24056L17.8914 1.89438L17.8869 1.89629L18.0356 2.24056ZM16.1053 33.1506L16.4789 33.1833L16.4796 33.1751L16.48 33.1668L16.1053 33.1506ZM16.4354 25.5706L16.81 25.5869L16.81 25.5869L16.4354 25.5706ZM16.6354 34.7706L16.9104 34.5156L16.9085 34.5135L16.6354 34.7706ZM18.6154 34.8406L18.7796 35.1777L18.7801 35.1775L18.6154 34.8406ZM19.0599 33.9176L18.7025 34.0312L18.7025 34.0312L19.0599 33.9176ZM18.9653 33.4606L19.3403 33.4541L19.3403 33.4539L18.9653 33.4606ZM19.0375 30.8767L18.6632 30.8533L18.663 30.8577L19.0375 30.8767ZM19.0375 30.8766L19.4118 30.9L19.412 30.8957L19.0375 30.8766ZM19.0754 30.1006L19.45 30.1173L19.45 30.1165L19.0754 30.1006ZM19.2544 27.3333L19.6283 27.3626L19.6283 27.3626L19.2544 27.3333ZM19.3754 25.7006L19.7496 25.7255L19.7498 25.7203L19.3754 25.7006ZM19.1754 25.1405L18.8599 25.3434L18.8633 25.3486L19.1754 25.1405ZM19.1196 25.0428L19.4498 24.8651L19.4456 24.8574L19.4411 24.8499L19.1196 25.0428ZM19.1195 25.0428L18.7893 25.2205L18.7935 25.2282L18.798 25.2357L19.1195 25.0428ZM18.7953 24.7106L18.6276 25.046L18.6392 25.0517L18.6511 25.0567L18.7953 24.7106ZM18.6754 24.6706L18.5968 25.0373L18.6018 25.0383L18.6754 24.6706ZM17.0353 24.9006L17.1773 25.2476L17.1796 25.2467L17.0353 24.9006ZM28.5015 19.617L28.4065 19.2543L28.4065 19.2543L28.5015 19.617ZM30.3822 19.1506L30.463 19.5168L30.467 19.5159L30.3822 19.1506ZM24.8022 20.3906L24.7628 20.0177L24.7584 20.0182L24.8022 20.3906ZM24.2922 20.3206L24.1668 20.674L24.1674 20.6742L24.2922 20.3206ZM24.2263 20.298L24.3461 19.9427L24.3448 19.9422L24.2263 20.298ZM24.2262 20.298L24.1063 20.6533L24.1076 20.6537L24.2262 20.298ZM23.4922 19.1806L23.8624 19.1208L23.862 19.1184L23.4922 19.1806ZM23.6635 18.3916L23.5997 18.0221L23.5997 18.0221L23.6635 18.3916ZM23.9122 18.3106L23.7266 17.9848L23.7221 17.9874L23.9122 18.3106ZM25.3492 17.8647L25.3094 17.4918L25.3094 17.4918L25.3492 17.8647ZM25.8223 17.8006L25.7571 17.4313L25.7531 17.432L25.8223 17.8006ZM27.7204 17.5286L27.763 17.9013L27.7734 17.8998L27.7204 17.5286ZM27.7204 17.5286L27.6698 17.157L27.6674 17.1574L27.7204 17.5286ZM27.7205 17.5286L27.6779 17.1559L27.6698 17.157L27.7205 17.5286ZM28.8522 17.3906L28.9014 17.7624L28.9053 17.7618L28.8522 17.3906ZM32.4416 17.7994L32.8153 17.8315L32.8153 17.8314L32.4416 17.7994ZM32.4222 18.2406L32.0474 18.2531L32.0475 18.2547L32.4222 18.2406ZM32.0922 18.8606L32.1302 19.2338L32.1387 19.2327L32.0922 18.8606ZM8.45402 20.0406L8.5263 19.6726L8.52301 19.672L8.45402 20.0406ZM6.50731 19.7314L6.45356 20.1026L6.45356 20.1026L6.50731 19.7314ZM10.114 20.4506L9.99541 20.8064L10.0091 20.8109L10.023 20.8144L10.114 20.4506ZM10.664 20.0106L10.3149 19.8735L10.3134 19.8774L10.664 20.0106ZM10.8578 19.6118L11.1879 19.7898L11.1879 19.7898L10.8578 19.6118ZM10.774 18.8406L10.6292 19.1865L10.6293 19.1866L10.774 18.8406ZM7.71397 17.8406L7.81264 17.4788L7.81194 17.4786L7.71397 17.8406ZM6.5605 17.5135L6.66603 17.1536L6.66603 17.1536L6.5605 17.5135ZM4.76401 17.0406L4.67715 17.4054L4.68009 17.4061L4.76401 17.0406ZM4.33644 16.9197L4.44696 16.5613L4.44696 16.5613L4.33644 16.9197ZM2.814 16.7606L2.85227 17.1337L2.85583 17.1333L2.814 16.7606ZM2.55625 16.732L2.64882 16.3686L2.64882 16.3686L2.55625 16.732ZM2.08396 17.3906L1.71931 17.3031L1.71908 17.3041L2.08396 17.3906ZM2.33334 18.7051L2.08414 18.9853L2.08415 18.9853L2.33334 18.7051ZM2.38401 18.7506L2.13047 19.0272L2.13996 19.0353L2.38401 18.7506ZM2.83396 19.0106L2.7221 19.3686L2.72493 19.3694L2.83396 19.0106ZM17.3401 11.3108C17.4901 8.53075 17.64 5.76136 17.8 2.98211L17.0512 2.93902C16.8912 5.71977 16.7411 8.49042 16.5911 11.2704L17.3401 11.3108ZM17.7741 12.861C17.3644 12.3676 17.2857 11.876 17.3389 11.3267L16.5923 11.2545C16.5255 11.9452 16.6269 12.6535 17.1971 13.3402L17.7741 12.861ZM19.2945 12.9069C18.5945 13.2658 17.9957 13.1292 17.7747 12.8617L17.1965 13.3394C17.7356 13.9919 18.7767 14.0153 19.6367 13.5742L19.2945 12.9069ZM19.5591 12.3283C19.6166 12.5415 19.6236 12.6055 19.6105 12.6519C19.6052 12.6705 19.5749 12.7635 19.2949 12.9067L19.6363 13.5745C19.9959 13.3907 20.2441 13.1669 20.3321 12.8564C20.4122 12.5736 20.3272 12.2962 20.2833 12.1332L19.5591 12.3283ZM19.4606 11.7306C19.4606 11.9696 19.5192 12.1802 19.5591 12.3283L20.2833 12.1332C20.2407 11.9749 20.2106 11.8561 20.2106 11.7306H19.4606ZM19.5797 8.86939C19.5206 9.81335 19.4606 10.771 19.4606 11.7306H20.2106C20.2106 10.7983 20.2689 9.86411 20.3282 8.91621L19.5797 8.86939ZM19.6312 8.01928C19.6151 8.30212 19.5974 8.58514 19.5797 8.86939L20.3282 8.91621C20.346 8.63231 20.3638 8.34719 20.38 8.06189L19.6312 8.01928ZM19.865 4.84571C19.778 5.86975 19.6979 6.81198 19.6312 8.0199L20.3801 8.06127C20.4461 6.86558 20.5253 5.93324 20.6123 4.9092L19.865 4.84571ZM19.8649 4.84694L19.8649 4.84715L20.6124 4.90776L20.6124 4.90755L19.8649 4.84694ZM20.0017 3.18165C19.9548 3.78816 19.909 4.32724 19.865 4.8455L20.6123 4.90899C20.6563 4.39091 20.7024 3.8492 20.7495 3.23948L20.0017 3.18165ZM19.8641 2.7735C19.965 2.94166 20.0063 3.07684 20.001 3.19354L20.7502 3.22759C20.7649 2.90429 20.6463 2.61946 20.5072 2.38762L19.8641 2.7735ZM19.7819 2.6228C19.8028 2.66407 19.8322 2.72257 19.8676 2.7793L20.5036 2.38182C20.489 2.35845 20.4746 2.33058 20.4508 2.28359L19.7819 2.6228ZM19.6322 2.42304C19.6871 2.45169 19.7131 2.48719 19.7819 2.6228L20.4508 2.28359C20.3855 2.15494 20.269 1.90937 19.9791 1.7581L19.6322 2.42304ZM19.6074 2.41022C19.6145 2.41396 19.6257 2.41986 19.6379 2.42598L19.9733 1.75516C19.9693 1.75315 19.965 1.75091 19.957 1.74669L19.6074 2.41022ZM19.6127 2.41294L19.6127 2.41298L19.9517 1.74394L19.9516 1.7439L19.6127 2.41294ZM19.6121 2.4083C19.6087 2.40763 19.6049 2.40667 19.6009 2.40542C19.597 2.40418 19.5939 2.40297 19.592 2.40219C19.5904 2.40148 19.5902 2.40135 19.5927 2.40259C19.5957 2.4041 19.5993 2.40597 19.6074 2.4102L19.9569 1.74664C19.9265 1.73062 19.8572 1.69247 19.7592 1.67286L19.6121 2.4083ZM18.1798 2.58672C18.3217 2.52762 18.5964 2.45383 18.8926 2.41035C19.2001 2.36521 19.4545 2.36454 19.5826 2.40115L19.7886 1.68001C19.4968 1.59662 19.1062 1.62095 18.7836 1.6683C18.4498 1.71731 18.1095 1.80351 17.8914 1.89441L18.1798 2.58672ZM17.8003 2.97555C17.8033 2.90045 17.8458 2.731 18.1843 2.58484L17.8869 1.89629C17.3454 2.13013 17.0679 2.52068 17.0509 2.94558L17.8003 2.97555ZM16.48 33.1668C16.59 30.6368 16.7 28.1069 16.81 25.5869L16.0607 25.5542C15.9507 28.0743 15.8407 30.6043 15.7307 33.1343L16.48 33.1668ZM16.9085 34.5135C16.5194 34.1002 16.4357 33.6756 16.4789 33.1833L15.7318 33.1178C15.675 33.7655 15.7913 34.4209 16.3623 35.0276L16.9085 34.5135ZM18.4511 34.5034C18.11 34.6696 17.7712 34.7381 17.4901 34.7271C17.2045 34.7159 17.0124 34.6257 16.9104 34.5156L16.3603 35.0255C16.6383 35.3254 17.0463 35.4602 17.4606 35.4765C17.8796 35.493 18.3407 35.3915 18.7796 35.1777L18.4511 34.5034ZM18.7025 34.0312C18.7313 34.1216 18.7479 34.1763 18.756 34.2237C18.763 34.2654 18.759 34.279 18.7583 34.2814C18.7582 34.2817 18.7538 34.3005 18.7135 34.3382C18.6698 34.3789 18.5905 34.4353 18.4507 34.5037L18.7801 35.1775C19.1289 35.0069 19.3861 34.7988 19.4767 34.4968C19.5608 34.216 19.4621 33.9452 19.4173 33.8041L18.7025 34.0312ZM18.5904 33.467C18.5944 33.6981 18.6602 33.898 18.7025 34.0312L19.4173 33.8041C19.3715 33.6599 19.3421 33.5599 19.3403 33.4541L18.5904 33.467ZM18.663 30.8577C18.6193 31.7168 18.5747 32.5909 18.5904 33.4673L19.3403 33.4539C19.3252 32.6076 19.3681 31.7592 19.412 30.8958L18.663 30.8577ZM18.6633 30.8532L18.6633 30.8533L19.4118 30.9001L19.4118 30.9L18.6633 30.8532ZM18.7008 30.0838C18.6893 30.3412 18.6762 30.5987 18.663 30.8576L19.412 30.8957C19.4252 30.6372 19.4384 30.3773 19.45 30.1173L18.7008 30.0838ZM18.8806 27.3041C18.811 28.1928 18.7456 29.0265 18.7007 30.0847L19.45 30.1165C19.4943 29.0731 19.5587 28.2514 19.6283 27.3626L18.8806 27.3041ZM19.0012 25.6756C18.9614 26.2724 18.9203 26.7971 18.8806 27.3041L19.6283 27.3626C19.668 26.8559 19.7094 26.3272 19.7495 25.7255L19.0012 25.6756ZM18.8633 25.3486C18.9726 25.5124 19.0043 25.6166 19.0009 25.6809L19.7498 25.7203C19.7665 25.4046 19.6181 25.1287 19.4874 24.9325L18.8633 25.3486ZM18.7893 25.2205C18.8063 25.252 18.8309 25.2983 18.8599 25.3433L19.4908 24.9378C19.4803 24.9215 19.4694 24.9016 19.4498 24.8651L18.7893 25.2205ZM18.798 25.2357L18.798 25.2358L19.4411 24.8499L19.4411 24.8499L18.798 25.2357ZM18.6511 25.0567C18.686 25.0713 18.7035 25.0868 18.7176 25.1035C18.7375 25.1269 18.7545 25.1558 18.7893 25.2205L19.4498 24.8651C19.3823 24.7397 19.2583 24.4972 18.9396 24.3644L18.6511 25.0567ZM18.6018 25.0383C18.6176 25.0414 18.6214 25.0429 18.6206 25.0426C18.6202 25.0425 18.6201 25.0424 18.6205 25.0426C18.6211 25.0428 18.6233 25.0438 18.6276 25.046L18.9631 24.3751C18.8893 24.3383 18.827 24.3185 18.7489 24.3029L18.6018 25.0383ZM17.1796 25.2467C17.3224 25.1872 17.5958 25.1133 17.8921 25.0659C18.1971 25.0171 18.4588 25.0077 18.5968 25.0373L18.7539 24.3039C18.4719 24.2435 18.0936 24.2741 17.7736 24.3253C17.4449 24.3779 17.1083 24.4639 16.8911 24.5544L17.1796 25.2467ZM16.81 25.5869C16.8116 25.5508 16.8232 25.5053 16.866 25.4522C16.911 25.3964 17.0011 25.3197 17.1773 25.2476L16.8934 24.5535C16.3558 24.7734 16.0787 25.1411 16.0607 25.5543L16.81 25.5869ZM28.5965 19.9798C29.2235 19.8156 29.8422 19.6537 30.463 19.5168L30.3015 18.7844C29.664 18.9249 29.0311 19.0907 28.4065 19.2543L28.5965 19.9798ZM24.8417 20.7635C26.1252 20.6277 27.377 20.2991 28.5965 19.9798L28.4065 19.2543C27.1775 19.5761 25.9805 19.8888 24.7628 20.0177L24.8417 20.7635ZM24.1674 20.6742C24.3733 20.7469 24.6027 20.7917 24.846 20.763L24.7584 20.0182C24.6618 20.0295 24.5511 20.0143 24.417 19.967L24.1674 20.6742ZM24.1064 20.6533C24.1289 20.6609 24.1481 20.6674 24.1668 20.674L24.4176 19.9672C24.3925 19.9583 24.3677 19.9499 24.3461 19.9427L24.1064 20.6533ZM24.1076 20.6537L24.1077 20.6537L24.3448 19.9422L24.3448 19.9422L24.1076 20.6537ZM23.122 19.2404C23.2008 19.728 23.3271 20.0617 23.52 20.2898C23.7223 20.529 23.9614 20.6044 24.1063 20.6533L24.346 19.9426C24.2011 19.8937 24.1476 19.8704 24.0926 19.8054C24.0282 19.7292 23.9323 19.5532 23.8624 19.1208L23.122 19.2404ZM23.5997 18.0221C23.567 18.0277 23.4618 18.0424 23.3658 18.0916C23.2396 18.1563 23.1492 18.264 23.1026 18.4025C23.0634 18.519 23.0587 18.6467 23.0645 18.7686C23.0706 18.8961 23.0904 19.0523 23.1224 19.2428L23.862 19.1184C23.832 18.9399 23.8177 18.8172 23.8137 18.7329C23.8094 18.643 23.8187 18.6259 23.8134 18.6416C23.8093 18.6538 23.7991 18.6776 23.777 18.7037C23.7543 18.7305 23.7288 18.7484 23.7078 18.7591C23.6895 18.7685 23.678 18.7707 23.6834 18.7694C23.6901 18.7677 23.7 18.7659 23.7273 18.7612L23.5997 18.0221ZM23.7221 17.9874C23.6948 18.0034 23.6704 18.0099 23.5997 18.0221L23.7273 18.7612C23.8007 18.7485 23.9465 18.7255 24.1023 18.6338L23.7221 17.9874ZM25.3094 17.4918C24.8714 17.5385 24.4234 17.5877 23.7266 17.9848L24.0979 18.6364C24.6651 18.3132 24.9952 18.2796 25.3889 18.2376L25.3094 17.4918ZM25.7531 17.432C25.6001 17.4607 25.4605 17.4757 25.3094 17.4918L25.3889 18.2376C25.5377 18.2218 25.7052 18.2041 25.8914 18.1692L25.7531 17.432ZM27.6778 17.156C27.1007 17.222 26.6519 17.2734 25.7571 17.4313L25.8874 18.1699C26.761 18.0157 27.1929 17.9664 27.763 17.9012L27.6778 17.156ZM27.6674 17.1574L27.6674 17.1574L27.7734 17.8998L27.7735 17.8998L27.6674 17.1574ZM27.6698 17.157L27.6698 17.157L27.7711 17.9002L27.7712 17.9001L27.6698 17.157ZM28.803 17.0188C28.3307 17.0813 27.9862 17.1208 27.6779 17.156L27.7631 17.9012C28.0721 17.8658 28.4222 17.8258 28.9014 17.7624L28.803 17.0188ZM32.0622 16.7456C31.1065 16.7456 29.7165 16.8883 28.7992 17.0194L28.9053 17.7618C29.808 17.6329 31.158 17.4956 32.0622 17.4956V16.7456ZM32.8153 17.8314C32.8233 17.7375 32.8329 17.6293 32.8331 17.5286C32.8334 17.4293 32.8254 17.305 32.7807 17.1833C32.7316 17.0499 32.6404 16.9264 32.4945 16.8444C32.3593 16.7686 32.2077 16.7456 32.0622 16.7456V17.4956C32.1356 17.4956 32.145 17.5084 32.1273 17.4985C32.0988 17.4824 32.0815 17.455 32.0767 17.4422C32.0764 17.4411 32.0833 17.4619 32.0831 17.5267C32.083 17.5901 32.0768 17.665 32.068 17.7673L32.8153 17.8314ZM32.797 18.2281C32.7927 18.0989 32.8033 17.9709 32.8153 17.8315L32.068 17.7673C32.0565 17.9013 32.0414 18.0725 32.0474 18.2531L32.797 18.2281ZM32.1387 19.2327C32.2532 19.2184 32.4672 19.1759 32.6242 18.9676C32.7667 18.7784 32.8081 18.5225 32.797 18.2265L32.0475 18.2547C32.0517 18.3663 32.0441 18.4372 32.035 18.4794C32.0261 18.5207 32.0178 18.5261 32.0253 18.5161C32.0348 18.5035 32.0497 18.4925 32.0627 18.4867C32.0709 18.4831 32.0702 18.4854 32.0457 18.4885L32.1387 19.2327ZM30.467 19.5159C31.0144 19.3888 31.5585 19.2918 32.1302 19.2337L32.0543 18.4875C31.4459 18.5494 30.8701 18.6524 30.2975 18.7853L30.467 19.5159ZM8.52301 19.672C7.87081 19.5499 7.21151 19.4545 6.56106 19.3603L6.45356 20.1026C7.10663 20.1971 7.75057 20.2905 8.38503 20.4092L8.52301 19.672ZM10.2326 20.0949C9.6683 19.9068 9.08831 19.783 8.5263 19.6726L8.38174 20.4086C8.93973 20.5182 9.47968 20.6345 9.99541 20.8064L10.2326 20.0949ZM10.3134 19.8774C10.2733 19.9829 10.2386 20.0449 10.2142 20.0794C10.1906 20.1128 10.182 20.1129 10.1945 20.1059C10.2336 20.084 10.268 20.1026 10.2049 20.0868L10.023 20.8144C10.12 20.8386 10.3343 20.8872 10.561 20.7603C10.7702 20.6431 10.9088 20.4221 11.0145 20.1438L10.3134 19.8774ZM10.5278 19.4338C10.4637 19.5526 10.3813 19.7045 10.3149 19.8735L11.013 20.1477C11.0604 20.0271 11.1212 19.9135 11.1879 19.7898L10.5278 19.4338ZM10.6293 19.1866C10.6986 19.2156 10.7028 19.2314 10.6903 19.2154C10.6828 19.2059 10.6746 19.1915 10.6694 19.1739C10.6644 19.1569 10.6644 19.1446 10.6646 19.1406C10.6647 19.1383 10.6633 19.1594 10.6374 19.2189C10.6121 19.2769 10.5767 19.3432 10.5278 19.4338L11.1879 19.7898C11.2328 19.7066 11.2847 19.6109 11.325 19.5183C11.3647 19.4272 11.407 19.3092 11.4136 19.179C11.421 19.0356 11.3845 18.8854 11.2807 18.7529C11.1849 18.6306 11.0532 18.5509 10.9186 18.4946L10.6293 19.1866ZM7.6153 18.2024C8.492 18.4415 9.79262 18.8363 10.6292 19.1865L10.9188 18.4947C10.0353 18.1249 8.69593 17.7197 7.81264 17.4788L7.6153 18.2024ZM6.45497 17.8733C6.76676 17.9648 7.11774 18.0677 7.61599 18.2026L7.81194 17.4786C7.32163 17.3459 6.97686 17.2448 6.66603 17.1536L6.45497 17.8733ZM4.68009 17.4061C5.51802 17.5985 5.93187 17.7199 6.45497 17.8733L6.66603 17.1536C6.13642 16.9983 5.70658 16.8723 4.84794 16.6751L4.68009 17.4061ZM4.22593 17.278C4.35914 17.3191 4.50806 17.3652 4.67716 17.4054L4.85087 16.6758C4.70891 16.642 4.5821 16.603 4.44696 16.5613L4.22593 17.278ZM2.85583 17.1333C3.5203 17.0587 3.83848 17.1585 4.22593 17.278L4.44696 16.5613C4.01576 16.4283 3.58382 16.2968 2.77217 16.388L2.85583 17.1333ZM2.46367 17.0954C2.53501 17.1136 2.67589 17.1517 2.85227 17.1337L2.77574 16.3876C2.74464 16.3908 2.71908 16.3865 2.64882 16.3686L2.46367 17.0954ZM2.44861 17.4781C2.49119 17.3007 2.52642 17.1814 2.556 17.102C2.58764 17.017 2.60285 17.0059 2.59089 17.0191C2.58176 17.0292 2.56217 17.0473 2.53071 17.0626C2.49849 17.0781 2.46756 17.084 2.44429 17.0852C2.42395 17.0863 2.41293 17.0836 2.41889 17.0847C2.42611 17.086 2.43645 17.0885 2.46367 17.0954L2.64882 16.3686C2.61601 16.3603 2.51337 16.3306 2.40532 16.3362C2.26285 16.3436 2.13469 16.4055 2.03492 16.5157C1.95133 16.608 1.8961 16.725 1.8532 16.8401C1.80824 16.9608 1.76481 17.1135 1.71932 17.3031L2.44861 17.4781ZM2.58253 18.4249C2.46917 18.324 2.42713 18.2803 2.40052 18.1967C2.36977 18.1001 2.34855 17.9001 2.44884 17.4771L1.71908 17.3041C1.60539 17.7835 1.59526 18.1397 1.68589 18.4243C1.78066 18.7219 1.9703 18.8841 2.08414 18.9853L2.58253 18.4249ZM2.63741 18.4742C2.61825 18.4566 2.59918 18.4397 2.58252 18.4248L2.08415 18.9853C2.10151 19.0008 2.11634 19.014 2.13062 19.027L2.63741 18.4742ZM2.94582 18.6527C2.84472 18.6211 2.73858 18.5606 2.62806 18.4659L2.13996 19.0353C2.30944 19.1806 2.50321 19.3001 2.72211 19.3685L2.94582 18.6527ZM6.56106 19.3603C5.31329 19.1796 4.09851 19.0029 2.94299 18.6518L2.72493 19.3694C3.94404 19.7399 5.21582 19.9233 6.45356 20.1026L6.56106 19.3603Z" fill="black"/>
</svg>
