<svg width="1440" height="816" viewBox="0 0 1440 816" fill="none" xmlns="http://www.w3.org/2000/svg"><g filter="url(#a)" clip-path="url(#b)"><path d="M1037.5-271.255H-143.706L-405-74.851s772.5-25.5 1254.5 329.872c482 355.373 254.27 173.777 453.85-142.34 199.59-316.117-265.85-383.936-265.85-383.936z" fill="url(#c)" style="mix-blend-mode:lighten" filter="url(#d)"/><path d="M1242.5 58.075c-64.5-10.852-67.5-24.958-313 150.287C644.742 411.629 423 568.075-131 599c-474.234 26.473 1265.95 215.947 1776.89 269.96 57.45 6.073 96.06-55.456 66.49-105.084-135.05-226.672-420.94-697.567-469.88-705.801z" fill="url(#e)" style="mix-blend-mode:screen" filter="url(#f)"/><path d="M2005.23-429.106l-939.84-72.2C924.369-512.14 812.566-384.332 842.06-246.005l75.596 354.554c26.583 124.675 135.284 214.793 262.724 217.81l911.02 21.566c144.18 3.413 249.52-135.15 207.66-273.16l-107.4-354.183c-25.34-83.56-99.37-143-186.43-149.688z" fill="url(#g)" style="mix-blend-mode:screen" filter="url(#h)"/></g><defs><filter id="a" x="-457.941" y="-554.89" width="2819.21" height="1477.21" filterUnits="userSpaceOnUse" color-interpolation-filters="sRGB"><feFlood flood-opacity="0" result="BackgroundImageFix"/><feBlend in="SourceGraphic" in2="BackgroundImageFix" result="shape"/><feGaussianBlur stdDeviation="26.471" result="effect1_foregroundBlur_81:2379"/></filter><filter id="d" x="-605" y="-471.255" width="2158.1" height="1120.93" filterUnits="userSpaceOnUse" color-interpolation-filters="sRGB"><feFlood flood-opacity="0" result="BackgroundImageFix"/><feBlend in="SourceGraphic" in2="BackgroundImageFix" result="shape"/><feGaussianBlur stdDeviation="100" result="effect1_foregroundBlur_81:2379"/></filter><filter id="f" x="-352.036" y="-87.668" width="2214.61" height="1097.04" filterUnits="userSpaceOnUse" color-interpolation-filters="sRGB"><feFlood flood-opacity="0" result="BackgroundImageFix"/><feBlend in="SourceGraphic" in2="BackgroundImageFix" result="shape"/><feGaussianBlur stdDeviation="70" result="effect1_foregroundBlur_81:2379"/></filter><filter id="h" x="677.307" y="-661.949" width="1791.02" height="1169.94" filterUnits="userSpaceOnUse" color-interpolation-filters="sRGB"><feFlood flood-opacity="0" result="BackgroundImageFix"/><feBlend in="SourceGraphic" in2="BackgroundImageFix" result="shape"/><feGaussianBlur stdDeviation="80" result="effect1_foregroundBlur_81:2379"/></filter><linearGradient id="c" x1="1215.5" y1="121.011" x2="-225.693" y2="392.206" gradientUnits="userSpaceOnUse"><stop offset=".038" stop-color="#0900FF"/><stop offset=".631" stop-color="#635DFF" stop-opacity="0"/><stop offset="1" stop-color="#BCBAFF"/></linearGradient><radialGradient id="e" cx="0" cy="0" r="1" gradientUnits="userSpaceOnUse" gradientTransform="matrix(1493.4999 -.54247 .74238 2043.89987 -89.5 584.893)"><stop stop-color="#88E3CD" stop-opacity="0"/><stop offset=".432" stop-color="#6CECB6" stop-opacity=".38"/><stop offset=".66" stop-color="#31CEA8"/><stop offset=".848" stop-color="#66C4E7"/></radialGradient><linearGradient id="g" x1="1778.82" y1="-343.85" x2="1161.23" y2="519.427" gradientUnits="userSpaceOnUse"><stop offset=".397" stop-color="#EE5D4A"/><stop offset=".929" stop-color="#EC58D7"/></linearGradient><clipPath id="b"><path fill="#fff" d="M0 0h1440v816H0z"/></clipPath></defs></svg>