<svg width="375" height="652" viewBox="0 0 375 652" fill="none" xmlns="http://www.w3.org/2000/svg"><mask id="c" style="mask-type:alpha" maskUnits="userSpaceOnUse" x="0" y="10" width="375" height="640"><path fill="url(#a)" d="M0 10h375v640H0z"/></mask><g filter="url(#b)" mask="url(#c)"><path d="M141.825.07L-210.5 67.5l-37 361s177-212.733 316-67.5 101.386 59.163 185.9-130.535C338.915 40.767 141.825.069 141.825.069z" fill="url(#d)" style="mix-blend-mode:lighten" filter="url(#e)"/><path d="M256 197.696c-27.312-6.511-55.95-14.976-159.907 90.186C-24.488 409.861-512.093 294-208 411 3.343 492.314 255.592 596.767 389.805 652.92c34.945 14.62 69.965-20.371 55.227-55.267C384.828 455.111 275.59 202.367 256 197.696z" fill="url(#f)" style="mix-blend-mode:screen" filter="url(#g)"/><path d="M520.757 123.77L194.858-72.977C121.316-117.374 30.002-53.455 46.545 30.841l38.44 195.871c14.807 75.455 79.717 130.716 156.569 133.295l214.669 7.201c104.983 3.522 168.665-114.61 108.019-200.376l-5.404-7.641a127.082 127.082 0 0 0-38.081-35.421z" fill="url(#h)" style="mix-blend-mode:screen" filter="url(#i)"/></g><defs><filter id="b" x="-338.052" y="-119.265" width="957.632" height="807.366" filterUnits="userSpaceOnUse" color-interpolation-filters="sRGB"><feFlood flood-opacity="0" result="BackgroundImageFix"/><feBlend in="SourceGraphic" in2="BackgroundImageFix" result="shape"/><feGaussianBlur stdDeviation="15.885" result="effect1_foregroundBlur_81:2513"/></filter><filter id="e" x="-367.518" y="-119.949" width="763.001" height="673.936" filterUnits="userSpaceOnUse" color-interpolation-filters="sRGB"><feFlood flood-opacity="0" result="BackgroundImageFix"/><feBlend in="SourceGraphic" in2="BackgroundImageFix" result="shape"/><feGaussianBlur stdDeviation="60.009" result="effect1_foregroundBlur_81:2513"/></filter><filter id="g" x="-390.295" y="110.238" width="922.796" height="630.105" filterUnits="userSpaceOnUse" color-interpolation-filters="sRGB"><feFlood flood-opacity="0" result="BackgroundImageFix"/><feBlend in="SourceGraphic" in2="BackgroundImageFix" result="shape"/><feGaussianBlur stdDeviation="42.006" result="effect1_foregroundBlur_81:2513"/></filter><filter id="i" x="-51.433" y="-183.51" width="735.258" height="646.809" filterUnits="userSpaceOnUse" color-interpolation-filters="sRGB"><feFlood flood-opacity="0" result="BackgroundImageFix"/><feBlend in="SourceGraphic" in2="BackgroundImageFix" result="shape"/><feGaussianBlur stdDeviation="48.007" result="effect1_foregroundBlur_81:2513"/></filter><radialGradient id="a" cx="0" cy="0" r="1" gradientUnits="userSpaceOnUse" gradientTransform="matrix(0 -394.678 689.555 0 188 404.678)"><stop offset=".244" stop-color="#DADFE8"/><stop offset="1" stop-color="#DADFE8" stop-opacity="0"/></radialGradient><linearGradient id="d" x1="217.199" y1="235.463" x2="-403.734" y2="317.913" gradientUnits="userSpaceOnUse"><stop offset=".038" stop-color="#0900FF"/><stop offset=".631" stop-color="#635DFF" stop-opacity="0"/><stop offset="1" stop-color="#BCBAFF"/></linearGradient><radialGradient id="f" cx="0" cy="0" r="1" gradientUnits="userSpaceOnUse" gradientTransform="matrix(632.42092 -.32553 .63133 1226.51984 -335.402 513.834)"><stop stop-color="#88E3CD" stop-opacity="0"/><stop offset=".432" stop-color="#6CECB6" stop-opacity=".38"/><stop offset=".66" stop-color="#31CEA8"/><stop offset=".848" stop-color="#66C4E7"/></radialGradient><linearGradient id="h" x1="455.736" y1="-43.494" x2="64.184" y2="342.717" gradientUnits="userSpaceOnUse"><stop offset=".397" stop-color="#EE5D4A"/><stop offset=".929" stop-color="#EC58D7"/></linearGradient></defs></svg>