<svg width="769" height="546" viewBox="0 0 769 546" fill="none" xmlns="http://www.w3.org/2000/svg"><g filter="url(#a)" clip-path="url(#b)"><path d="M589.229-190.056h-645.45L-199-37.966S223.119-57.711 486.5 217.48c263.38 275.191 138.94 134.568 248-110.225 109.06-244.792-145.271-297.31-145.271-297.31z" fill="url(#c)" style="mix-blend-mode:lighten" filter="url(#d)"/><path d="M701.247 64.969c-35.245-8.403-36.884-19.326-171.033 116.378-155.601 157.405-276.768 278.552-579.492 302.5C-302.645 503.891 600.733 644.6 902.047 689.95c41.9 6.306 74.102-35.249 57.688-74.313C886.677 441.764 728.202 71.395 701.247 64.969z" fill="url(#e)" style="mix-blend-mode:screen" filter="url(#f)"/><path d="M1079.12-316.526l-417.387-45.441c-106.92-11.64-195.91 81.066-179.908 187.42L522.13 93.34c15.292 101.64 100.933 177.897 203.66 181.343l389.44 13.065c106.58 3.575 188.16-93.927 165.85-198.207l-59.35-277.36c-14.8-69.169-72.29-121.052-142.61-128.707z" fill="url(#g)" style="mix-blend-mode:screen" filter="url(#h)"/></g><defs><filter id="a" x="-239.996" y="-403.953" width="1565.77" height="1135.54" filterUnits="userSpaceOnUse" color-interpolation-filters="sRGB"><feFlood flood-opacity="0" result="BackgroundImageFix"/><feBlend in="SourceGraphic" in2="BackgroundImageFix" result="shape"/><feGaussianBlur stdDeviation="20.498" result="effect1_foregroundBlur_81:2384"/></filter><filter id="d" x="-353.875" y="-344.93" width="1270.43" height="868.016" filterUnits="userSpaceOnUse" color-interpolation-filters="sRGB"><feFlood flood-opacity="0" result="BackgroundImageFix"/><feBlend in="SourceGraphic" in2="BackgroundImageFix" result="shape"/><feGaussianBlur stdDeviation="77.437" result="effect1_foregroundBlur_81:2384"/></filter><filter id="f" x="-201.971" y="-47.89" width="1274.48" height="846.891" filterUnits="userSpaceOnUse" color-interpolation-filters="sRGB"><feFlood flood-opacity="0" result="BackgroundImageFix"/><feBlend in="SourceGraphic" in2="BackgroundImageFix" result="shape"/><feGaussianBlur stdDeviation="54.206" result="effect1_foregroundBlur_81:2384"/></filter><filter id="h" x="356.055" y="-486.857" width="1052.62" height="898.599" filterUnits="userSpaceOnUse" color-interpolation-filters="sRGB"><feFlood flood-opacity="0" result="BackgroundImageFix"/><feBlend in="SourceGraphic" in2="BackgroundImageFix" result="shape"/><feGaussianBlur stdDeviation="61.95" result="effect1_foregroundBlur_81:2384"/></filter><linearGradient id="c" x1="686.494" y1="113.705" x2="-114.779" y2="220.101" gradientUnits="userSpaceOnUse"><stop offset=".038" stop-color="#0900FF"/><stop offset=".631" stop-color="#635DFF" stop-opacity="0"/><stop offset="1" stop-color="#BCBAFF"/></linearGradient><radialGradient id="e" cx="0" cy="0" r="1" gradientUnits="userSpaceOnUse" gradientTransform="matrix(816.0969 -.42007 .81469 1582.73979 -26.6 472.923)"><stop stop-color="#88E3CD" stop-opacity="0"/><stop offset=".432" stop-color="#6CECB6" stop-opacity=".38"/><stop offset=".66" stop-color="#31CEA8"/><stop offset=".848" stop-color="#66C4E7"/></radialGradient><linearGradient id="g" x1="994.309" y1="-246.271" x2="489.037" y2="252.108" gradientUnits="userSpaceOnUse"><stop offset=".397" stop-color="#EE5D4A"/><stop offset=".929" stop-color="#EC58D7"/></linearGradient><clipPath id="b"><path fill="#fff" d="M0 0h769v546H0z"/></clipPath></defs></svg>