<?xml version="1.0" encoding="utf-8"?>
<!-- Generator: Adobe Illustrator 26.0.1, SVG Export Plug-In . SVG Version: 6.00 Build 0)  -->
<svg version="1.1" id="Ebene_1" xmlns="http://www.w3.org/2000/svg" xmlns:xlink="http://www.w3.org/1999/xlink" x="0px" y="0px"
	 viewBox="0 0 241.5 43.44" style="enable-background:new 0 0 241.5 43.44;" xml:space="preserve">
<g>
	<path d="M7.98,43.44H0V0h7.98v16.38c1.92-2.28,5.16-3.24,7.98-3.24c7.5,0,10.98,5.22,10.98,11.7v18.6h-7.98V26.22
		c0-3.3-1.62-5.88-5.46-5.88c-3.36,0-5.34,2.52-5.52,5.76V43.44z"/>
	<path d="M61.5,34.98c-1.5,5.1-6.18,9.36-13.44,9.36c-8.1,0-15.24-5.82-15.24-15.78c0-9.42,6.96-15.54,14.52-15.54
		c9.12,0,14.58,5.82,14.58,15.3c0,1.14-0.12,2.34-0.12,2.46H40.68c0.18,3.9,3.48,6.72,7.44,6.72c3.72,0,5.76-1.86,6.72-4.5
		L61.5,34.98z M54.06,25.32c-0.12-2.94-2.04-5.82-6.6-5.82c-4.14,0-6.42,3.12-6.6,5.82H54.06z"/>
	<path d="M75.24,26.46l7.26-1.08c1.68-0.24,2.22-1.08,2.22-2.1c0-2.1-1.62-3.84-4.98-3.84c-3.48,0-5.4,2.22-5.64,4.8l-7.08-1.5
		c0.48-4.62,4.74-9.72,12.66-9.72c9.36,0,12.84,5.28,12.84,11.22v14.52c0,1.56,0.18,3.66,0.36,4.68h-7.32
		c-0.18-0.78-0.3-2.4-0.3-3.54c-1.5,2.34-4.32,4.38-8.7,4.38c-6.3,0-10.14-4.26-10.14-8.88C66.42,30.12,70.32,27.18,75.24,26.46z
		 M84.72,31.5v-1.32l-6.66,1.02c-2.04,0.3-3.66,1.44-3.66,3.72c0,1.74,1.26,3.42,3.84,3.42C81.6,38.34,84.72,36.72,84.72,31.5z"/>
	<path d="M100.56,43.44V0h7.98v43.44H100.56z"/>
	<path d="M126.6,10.68v3.24h6.66v6.84h-6.66v22.68h-8.04V20.76h-4.92v-6.84h4.92v-3.36c0-6.66,4.2-10.98,10.74-10.98
		c1.68,0,3.3,0.3,3.96,0.6V6.9c-0.42-0.12-1.2-0.3-2.52-0.3C128.94,6.6,126.6,7.38,126.6,10.68z"/>
	<path d="M166.5,28.68c0,9.06-6.66,15.66-15.48,15.66c-8.82,0-15.48-6.6-15.48-15.66c0-9.12,6.66-15.66,15.48-15.66
		C159.84,13.02,166.5,19.56,166.5,28.68z M158.52,28.68c0-5.58-3.6-8.4-7.5-8.4c-3.9,0-7.5,2.82-7.5,8.4c0,5.52,3.6,8.4,7.5,8.4
		C154.92,37.08,158.52,34.26,158.52,28.68z"/>
	<path d="M190.8,21.84c-0.9-0.18-1.68-0.24-2.4-0.24c-4.08,0-7.62,1.98-7.62,8.34v13.5h-7.98V13.92h7.74v4.38
		c1.8-3.9,5.88-4.62,8.4-4.62c0.66,0,1.26,0.06,1.86,0.12V21.84z"/>
	<path d="M196.44,43.44V13.92h7.62v3.6c1.62-2.88,5.4-4.44,8.64-4.44c4.02,0,7.26,1.74,8.76,4.92c2.34-3.6,5.46-4.92,9.36-4.92
		c5.46,0,10.68,3.3,10.68,11.22v19.14h-7.74V25.92c0-3.18-1.56-5.58-5.22-5.58c-3.42,0-5.46,2.64-5.46,5.82v17.28h-7.92V25.92
		c0-3.18-1.62-5.58-5.22-5.58c-3.48,0-5.52,2.58-5.52,5.82v17.28H196.44z"/>
</g>
</svg>
